<?xml version="1.0" encoding="UTF-8"?>
<!DOCTYPE svg PUBLIC "-//W3C//DTD SVG 1.1//EN" "http://www.w3.org/Graphics/SVG/1.1/DTD/svg11.dtd">
<!-- Creator: CorelDRAW 2018 -->
<svg xmlns="http://www.w3.org/2000/svg" xml:space="preserve" width="1000px" height="1000px" version="1.1" style="shape-rendering:geometricPrecision; text-rendering:geometricPrecision; image-rendering:optimizeQuality; fill-rule:evenodd; clip-rule:evenodd"
viewBox="0 0 100000000 100000000"
 xmlns:xlink="http://www.w3.org/1999/xlink"
 xmlns:dc="http://purl.org/dc/elements/1.1/"
 xmlns:cc="http://creativecommons.org/ns#"
 xmlns:rdf="http://www.w3.org/1999/02/22-rdf-syntax-ns#"
 xmlns:svg="http://www.w3.org/2000/svg"
 xmlns:sodipodi="http://sodipodi.sourceforge.net/DTD/sodipodi-0.dtd"
 xmlns:inkscape="http://www.inkscape.org/namespaces/inkscape"
 inkscape:export-ydpi="41.27"
 inkscape:export-xdpi="41.27"
 inkscape:export-filename="/home/jr/src/logo/kubuntu_logotype_black.png"
 sodipodi:docname="Kubuntu_logo_and_wordmark.svg"
 inkscape:version="1.0 (1.0+r73+1)"
 enable-background="new 0 0 779.617 170.079">
 <defs>
  <style type="text/css">
   <![CDATA[
    .fil0 {fill:#0079C1}
    .fil1 {fill:white}
   ]]>
  </style>
 </defs>
 <g id="Слой_x0020_1">
  <metadata id="CorelCorpID_0Corel-Layer"/>
  <sodipodi:namedview inkscape:document-rotation="0" inkscape:current-layer="kubuntu__x5F__black" inkscape:window-maximized="1" inkscape:window-y="0" inkscape:window-x="0" inkscape:cy="377.5259" inkscape:cx="362.73377" inkscape:zoom="0.59544401" showgrid="false" id="namedview23" inkscape:window-height="709" inkscape:window-width="1366" inkscape:pageshadow="2" inkscape:pageopacity="0" guidetolerance="10" gridtolerance="10" objecttolerance="10" borderopacity="1" bordercolor="#666666" pagecolor="#ffffff"/>
  <path id="path2819-8-3-8" class="fil0" d="M100000000 49998000c0,27614000 -22386000,50002000 -50001000,50002000 -27614000,0 -49999000,-22388000 -49999000,-50002000 0,-27613000 22385000,-49998000 49999000,-49998000 27615000,0 50001000,22385000 50001000,49998000z"/>
  <path class="fil1" d="M20251000 80782000l-5682000 -6771000 7931000 -9452000c-1333000,-2525000 -2289000,-5183000 -2874000,-7898000l-12152000 -2143000 0 -8839000 12152000 -2142000c601000,-2791000 1578000,-5442000 2875000,-7898000l-7932000 -9452000 5682000 -6771000 13377000 11225000c-12030000,10096000 -12030000,28820000 0,38916000l-13377000 11225000zm17964000 10372000l8705000 1534000 4220000 -11595000c2775000,-105000 5559000,-584000 8277000,-1459000l7931000 9452000 7655000 -4419000 -4221000 -11595000c2059000,-1864000 3883000,-4021000 5403000,-6438000l12151000 2143000 3024000 -8306000 -16406000 -5972000c-2731000,15630000 -19015000,24819000 -33708000,19464000l-3031000 17191000zm36739000 -45455000c-2731000,-15630000 -19015000,-24819000 -33708000,-19464000l-3031000 -17190000 8705000 -1536000 4220000 11595000c2853000,108000 5633000,609000 8277000,1460000l7931000 -9453000 7655000 4420000 -4220000 11595000c2116000,1916000 3923000,4087000 5402000,6438000l12151000 -2143000 3024000 8306000 -16406000 5972000z"/>
 </g>
</svg>
