<svg width="80" height="80" viewBox="0 0 80 80" fill="none" xmlns="http://www.w3.org/2000/svg">
<rect width="80" height="80" rx="40" fill="#E40046"/>
<path d="M19.5438 34.6372V33.462C19.5438 32.5953 19.6209 31.8801 20.0276 31.4733C20.2935 31.1914 20.6657 31.0399 21.2799 31.0399C21.8904 31.0357 22.4933 31.175 23.04 31.4467L23.9599 29.0219C23.0265 28.5754 22.0062 28.3403 20.9715 28.3333C19.1848 28.3333 18.0469 28.8438 17.3477 29.7637C16.7096 30.6039 16.4543 31.779 16.4543 33.2201V34.6239H15V37.2267H16.4543V47.7686H19.5438V37.24H23.1357L22.1546 34.6372H19.5438Z" fill="white"/>
<path d="M32.7896 34.6371L29.7772 43.3392H29.7187L28.0331 38.378H24.7815L28.0943 47.1677L25.9965 52.7058L28.751 53.7534L36.1529 34.6371H32.7896Z" fill="white"/>
<path d="M27.6529 37.24H24.3534L23.3723 34.6371H26.7675L27.6529 37.24Z" fill="white"/>
<path d="M46.8542 28.639V35.9904C46.345 35.4625 45.7339 35.0432 45.0581 34.7581C44.3822 34.4729 43.6555 34.3278 42.922 34.3314C39.1466 34.3314 36.5676 37.5724 36.5676 41.1696C36.5676 44.9982 39.2476 48.0823 42.8715 48.0823C44.3258 48.0823 46.0353 47.5213 46.9818 46.0909L47.1334 47.7766H49.9676V28.6337L46.8542 28.639ZM46.8542 43.3391C46.5297 43.9579 46.0414 44.4756 45.4427 44.8357C44.8439 45.1958 44.1577 45.3845 43.459 45.381C41.1353 45.381 39.7076 43.3923 39.7076 41.2467C39.7076 39.2314 40.9333 37.0353 43.5096 37.0353C44.1573 37.0351 44.7962 37.1847 45.3765 37.4725C45.9567 37.7604 46.4625 38.1785 46.8542 38.6943V43.3391Z" fill="white"/>
<path d="M64.9999 40.4305C64.9999 36.9077 62.3704 34.3314 58.7971 34.3314C55.0749 34.3314 52.1875 37.3438 52.1875 41.2999C52.1875 45.2029 54.7399 48.0877 58.7971 48.0877C61.5276 48.0877 63.2398 47.0667 64.6941 44.9238L62.6017 43.52C61.7828 44.8972 60.6874 45.5619 58.9752 45.5619C56.8323 45.5619 55.5056 43.9666 55.3009 41.9885H64.8723C64.953 41.473 64.9956 40.9523 64.9999 40.4305ZM55.479 39.7685C55.8884 38.0829 56.9865 36.8067 58.8742 36.8067C60.5067 36.8067 61.7589 38.0563 61.836 39.7685H55.479Z" fill="white"/>
</svg>
